<?xml version="1.0" encoding="utf-8"?>
<!-- Generator: Adobe Illustrator 25.2.1, SVG Export Plug-In . SVG Version: 6.00 Build 0)  -->
<svg version="1.1" id="Layer_1" xmlns="http://www.w3.org/2000/svg" xmlns:xlink="http://www.w3.org/1999/xlink" x="0px" y="0px"
	 viewBox="0 0 122 122" style="enable-background:new 0 0 122 122;" xml:space="preserve">
<style type="text/css">
	.st0{fill:#1E5A63;stroke:#1E5A63;stroke-width:0.1;stroke-miterlimit:10;}
</style>
<g>
	<g>
		<defs>
			<path id="SVGID_1_" d="M109.21,100.24c0,5.44-4.25,9.86-9.49,9.86l-76.11,0c-5.24,0-9.49-4.41-9.49-9.86l0-79.01
				c0-5.44,4.25-9.86,9.49-9.86l76.11,0c5.24,0,9.49,4.41,9.49,9.86L109.21,100.24z"/>
		</defs>
		<clipPath id="SVGID_2_">
			<use xlink:href="#SVGID_1_"  style="overflow:visible;"/>
		</clipPath>
		
			<use xlink:href="#SVGID_1_"  style="overflow:visible;fill-rule:evenodd;clip-rule:evenodd;fill:none;stroke:#1E5A63;stroke-width:13;stroke-miterlimit:10;"/>
	</g>
	<g>
		<g>
			<g>
				<path class="st0" d="M60.68,36.64l-15.97,0c-0.95,0-1.72-0.8-1.72-1.78c0-0.98,0.77-1.78,1.72-1.78l14.26,0l0-21.45
					c0-0.98,0.77-1.78,1.72-1.78c0.95,0,1.72,0.8,1.72,1.78l0,23.23C62.39,35.84,61.62,36.64,60.68,36.64z"/>
			</g>
			<g>
				<path class="st0" d="M73.69,112.12c-0.95,0-1.72,0.28-1.72-0.7l0-34.87c0-0.98,0.77-1.78,1.72-1.78l16.2,0
					c0.95,0,1.72,0.8,1.72,1.78c0,0.98-0.77,1.78-1.72,1.78l-14.48,0l0,33.09C75.41,112.41,74.64,112.12,73.69,112.12z"/>
			</g>
			<g>
				<path class="st0" d="M54.95,112.12c-0.95,0-1.72-0.8-1.72-1.78l0-20.49l-11.77,0c-0.95,0-1.72-0.8-1.72-1.78
					c0-0.98,0.77-1.78,1.72-1.78l13.49,0c0.95,0,1.72,0.8,1.72,1.78l0,22.27C56.67,111.33,55.9,112.12,54.95,112.12z"/>
			</g>
			<g>
				<path class="st0" d="M61.04,111.23c-0.95,0-1.72-0.8-1.72-1.78l0-41.74l-6.84,0c-0.95,0-1.72-0.8-1.72-1.78
					c0-0.98,0.77-1.78,1.72-1.78l8.55,0c0.95,0,1.72,0.8,1.72,1.78l0,43.52C62.75,110.44,61.98,111.23,61.04,111.23z"/>
			</g>
			<g>
				<path class="st0" d="M83.98,51.92c-0.95,0-1.72-0.8-1.72-1.78l0-38.52c0-0.98,0.77-1.78,1.72-1.78c0.95,0,1.72,0.8,1.72,1.78
					l0,38.52C85.69,51.12,84.93,51.92,83.98,51.92z"/>
			</g>
			<path class="st0" d="M67.3,112.12c-0.95,0-1.68-0.12-1.68-1.11l0-59.34l-51.12,0c-0.95,0-1.72-0.8-1.72-1.78
				c0-0.98,0.77-1.78,1.72-1.78l52.84,0c0.95,0,1.72,0.8,1.72,1.78l0,61.12C69.06,112,68.25,112.12,67.3,112.12z"/>
		</g>
	</g>
	<g>
		<path class="st0" d="M99.62,84.27h-7.29c-1.94,0-3.51-1.63-3.51-3.64v-7.57c0-2.01,1.57-3.64,3.51-3.64h7.29
			c1.94,0,3.51,1.63,3.51,3.64l0,7.57C103.13,82.64,101.55,84.27,99.62,84.27z M92.41,80.55h7.13l0-7.4h-7.13L92.41,80.55z"/>
		<path class="st0" d="M39.08,95.58H31.8c-1.94,0-3.51-1.63-3.51-3.64l0-7.57c0-2.01,1.57-3.64,3.51-3.64h7.29
			c1.94,0,3.51,1.63,3.51,3.64l0,7.57C42.59,93.94,41.02,95.58,39.08,95.58z M31.87,91.85H39l0-7.4h-7.13L31.87,91.85z"/>
		<path class="st0" d="M48.77,73.22l-7.29,0c-1.94,0-3.51-1.63-3.51-3.64l0-7.57c0-2.01,1.57-3.64,3.51-3.64l7.29,0
			c1.94,0,3.51,1.63,3.51,3.64l0,7.57C52.28,71.59,50.71,73.22,48.77,73.22z M41.56,69.5l7.13,0l0-7.4l-7.13,0L41.56,69.5z"/>
		<path class="st0" d="M87.7,63.16l-7.29,0c-1.94,0-3.51-1.63-3.51-3.64v-7.57c0-2.01,1.57-3.64,3.51-3.64l7.29,0
			c1.94,0,3.51,1.63,3.51,3.64l0,7.57C91.21,61.53,89.64,63.16,87.7,63.16z M80.49,59.44l7.13,0l0-7.4l-7.13,0L80.49,59.44z"/>
		<path class="st0" d="M42.72,42.05l-7.29,0c-1.94,0-3.75-1.63-3.75-3.64l0-7.57c0-2.01,1.57-3.64,3.51-3.64l7.29,0
			c1.94,0,3.51,1.63,3.51,3.64l0,7.57C45.99,40.42,44.66,42.05,42.72,42.05z M35.27,38.33l7.13,0l0-7.4l-7.13,0L35.27,38.33z"/>
	</g>
</g>
</svg>
